<svg width="21" height="20" viewBox="0 0 21 20" fill="none" xmlns="http://www.w3.org/2000/svg">
<path d="M19.689 8.4893L15.5497 12.5243L16.5272 18.2232C16.5697 18.4724 16.4674 18.7242 16.2627 18.8731C16.1471 18.9575 16.0095 19 15.872 19C15.7663 19 15.66 18.9747 15.563 18.9236L10.4448 16.2329L5.32738 18.9229C5.1041 19.0412 4.83231 19.0219 4.62764 18.8724C4.42297 18.7236 4.32063 18.4717 4.36316 18.2225L5.34067 12.5236L1.20072 8.4893C1.01997 8.31254 0.95418 8.04806 1.03259 7.80817C1.11101 7.56828 1.319 7.39218 1.56952 7.35563L7.29037 6.52498L9.84877 1.3404C10.0727 0.886533 10.817 0.886533 11.0409 1.3404L13.5993 6.52498L19.3202 7.35563C19.5707 7.39218 19.7787 7.56761 19.8571 7.80817C19.9355 8.04872 19.8697 8.31187 19.689 8.4893Z" fill="#F2C94C" stroke="#F2C94C" stroke-width="2"/>
</svg>
