<svg width="16" height="67" viewBox="0 0 16 67" fill="none" xmlns="http://www.w3.org/2000/svg">
<rect y="67" width="67" height="16" rx="2" transform="rotate(-90 0 67)" fill="#FF8400"/>
<path d="M12 44.552H4.176V42.86L8.232 40.7L9.936 39.908V39.86C9.52 39.9 9.064 39.948 8.568 40.004C8.072 40.052 7.596 40.076 7.14 40.076H4.176V38.504H12V40.196L7.932 42.356L6.24 43.148V43.196C6.656 43.156 7.108 43.112 7.596 43.064C8.084 43.008 8.556 42.98 9.012 42.98H12V44.552ZM12.144 34.1227C12.144 34.6827 12.02 35.1907 11.772 35.6467C11.524 36.0947 11.172 36.4507 10.716 36.7147C10.252 36.9787 9.692 37.1107 9.036 37.1107C8.396 37.1107 7.844 36.9787 7.38 36.7147C6.916 36.4427 6.556 36.0947 6.3 35.6707C6.044 35.2467 5.916 34.7987 5.916 34.3267C5.916 33.7747 6.04 33.3147 6.288 32.9467C6.536 32.5707 6.876 32.2907 7.308 32.1067C7.732 31.9147 8.216 31.8187 8.76 31.8187C8.904 31.8187 9.048 31.8267 9.192 31.8427C9.328 31.8587 9.432 31.8747 9.504 31.8907V35.8147L8.412 35.8267V33.2347C8.044 33.2347 7.748 33.3187 7.524 33.4867C7.292 33.6547 7.176 33.9227 7.176 34.2907C7.176 34.5067 7.236 34.7147 7.356 34.9147C7.476 35.1147 7.676 35.2787 7.956 35.4067C8.228 35.5347 8.588 35.5987 9.036 35.5987C9.492 35.5987 9.856 35.5187 10.128 35.3587C10.392 35.1907 10.584 34.9787 10.704 34.7227C10.824 34.4667 10.884 34.1947 10.884 33.9067C10.884 33.6667 10.852 33.4427 10.788 33.2347C10.716 33.0187 10.616 32.8027 10.488 32.5867L11.484 32.0467C11.684 32.3427 11.844 32.6747 11.964 33.0427C12.084 33.4027 12.144 33.7627 12.144 34.1227ZM12 29.6375L6.06 31.1495V29.5175L8.916 28.8935C9.204 28.8455 9.496 28.8015 9.792 28.7615C10.08 28.7135 10.372 28.6655 10.668 28.6175V28.5695C10.372 28.5135 10.08 28.4575 9.792 28.4015C9.496 28.3455 9.204 28.2815 8.916 28.2095L6.06 27.5135V26.0735L8.916 25.3655C9.204 25.2935 9.496 25.2295 9.792 25.1735C10.08 25.1095 10.372 25.0495 10.668 24.9935V24.9455C10.372 24.8895 10.08 24.8415 9.792 24.8015C9.496 24.7615 9.204 24.7135 8.916 24.6575L6.06 24.0455L6.06 22.5215L12 23.9735V25.9055L9.504 26.4935C9.224 26.5495 8.944 26.6055 8.664 26.6615C8.384 26.7095 8.084 26.7615 7.764 26.8175V26.8655C8.084 26.9215 8.384 26.9735 8.664 27.0215C8.944 27.0695 9.224 27.1255 9.504 27.1895L12 27.7535V29.6375Z" fill="#FCFCFD"/>
</svg>
