<svg width="16" height="42" viewBox="0 0 16 42" fill="none" xmlns="http://www.w3.org/2000/svg">
<rect y="42" width="42" height="16" rx="2" transform="rotate(-90 0 42)" fill="#FF8400"/>
<path d="M12 32.052H4.176V30.36L8.232 28.2L9.936 27.408V27.36C9.52 27.4 9.064 27.448 8.568 27.504C8.072 27.552 7.596 27.576 7.14 27.576H4.176V26.004H12V27.696L7.932 29.856L6.24 30.648V30.696C6.656 30.656 7.108 30.612 7.596 30.564C8.084 30.508 8.556 30.48 9.012 30.48H12V32.052ZM12.144 21.6227C12.144 22.1827 12.02 22.6907 11.772 23.1467C11.524 23.5947 11.172 23.9507 10.716 24.2147C10.252 24.4787 9.692 24.6107 9.036 24.6107C8.396 24.6107 7.844 24.4787 7.38 24.2147C6.916 23.9427 6.556 23.5947 6.3 23.1707C6.044 22.7467 5.916 22.2987 5.916 21.8267C5.916 21.2747 6.04 20.8147 6.288 20.4467C6.536 20.0707 6.876 19.7907 7.308 19.6067C7.732 19.4147 8.216 19.3187 8.76 19.3187C8.904 19.3187 9.048 19.3267 9.192 19.3427C9.328 19.3587 9.432 19.3747 9.504 19.3907V23.3147L8.412 23.3267V20.7347C8.044 20.7347 7.748 20.8187 7.524 20.9867C7.292 21.1547 7.176 21.4227 7.176 21.7907C7.176 22.0067 7.236 22.2147 7.356 22.4147C7.476 22.6147 7.676 22.7787 7.956 22.9067C8.228 23.0347 8.588 23.0987 9.036 23.0987C9.492 23.0987 9.856 23.0187 10.128 22.8587C10.392 22.6907 10.584 22.4787 10.704 22.2227C10.824 21.9667 10.884 21.6947 10.884 21.4067C10.884 21.1667 10.852 20.9427 10.788 20.7347C10.716 20.5187 10.616 20.3027 10.488 20.0867L11.484 19.5467C11.684 19.8427 11.844 20.1747 11.964 20.5427C12.084 20.9027 12.144 21.2627 12.144 21.6227ZM12 17.1375L6.06 18.6495V17.0175L8.916 16.3935C9.204 16.3455 9.496 16.3015 9.792 16.2615C10.08 16.2135 10.372 16.1655 10.668 16.1175V16.0695C10.372 16.0135 10.08 15.9575 9.792 15.9015C9.496 15.8455 9.204 15.7815 8.916 15.7095L6.06 15.0135V13.5735L8.916 12.8655C9.204 12.7935 9.496 12.7295 9.792 12.6735C10.08 12.6095 10.372 12.5495 10.668 12.4935V12.4455C10.372 12.3895 10.08 12.3415 9.792 12.3015C9.496 12.2615 9.204 12.2135 8.916 12.1575L6.06 11.5455L6.06 10.0215L12 11.4735V13.4055L9.504 13.9935C9.224 14.0495 8.944 14.1055 8.664 14.1615C8.384 14.2095 8.084 14.2615 7.764 14.3175V14.3655C8.084 14.4215 8.384 14.4735 8.664 14.5215C8.944 14.5695 9.224 14.6255 9.504 14.6895L12 15.2535V17.1375Z" fill="#FCFCFD"/>
</svg>
