<svg width="35" height="35" viewBox="0 0 35 35" fill="none" xmlns="http://www.w3.org/2000/svg">
<rect width="35" height="35" rx="17.5" fill="#0282FF"/>
<path d="M26.9542 22.178L24.1631 19.3869C23.1663 18.3901 21.4717 18.7889 21.073 20.0847C20.774 20.9818 19.7772 21.4802 18.88 21.2808C16.8864 20.7824 14.195 18.1907 13.6966 16.0975C13.3976 15.2003 13.9957 14.2035 14.8928 13.9045C16.1887 13.5058 16.5874 11.8112 15.5906 10.8144L12.7995 8.02332C12.0021 7.32556 10.8059 7.32556 10.1081 8.02332L8.21421 9.91725C6.32028 11.9109 8.41357 17.1939 13.0986 21.8789C17.7835 26.5639 23.0666 28.7569 25.0602 26.7633L26.9542 24.8693C27.652 24.0719 27.652 22.8757 26.9542 22.178Z" fill="white"/>
</svg>
