<svg width="35" height="35" viewBox="0 0 35 35" fill="none" xmlns="http://www.w3.org/2000/svg">
<rect width="35" height="35" rx="17.5" fill="#23C760"/>
<path d="M17.5025 7.5H17.4975C11.9838 7.5 7.5 11.985 7.5 17.5C7.5 19.6875 8.205 21.715 9.40375 23.3612L8.1575 27.0763L12.0013 25.8475C13.5825 26.895 15.4688 27.5 17.5025 27.5C23.0162 27.5 27.5 23.0138 27.5 17.5C27.5 11.9863 23.0162 7.5 17.5025 7.5ZM23.3212 21.6213C23.08 22.3025 22.1225 22.8675 21.3587 23.0325C20.8363 23.1437 20.1537 23.2325 17.8562 22.28C14.9175 21.0625 13.025 18.0763 12.8775 17.8825C12.7362 17.6887 11.69 16.3013 11.69 14.8663C11.69 13.4313 12.4188 12.7325 12.7125 12.4325C12.9538 12.1863 13.3525 12.0738 13.735 12.0738C13.8587 12.0738 13.97 12.08 14.07 12.085C14.3637 12.0975 14.5113 12.115 14.705 12.5788C14.9462 13.16 15.5337 14.595 15.6038 14.7425C15.675 14.89 15.7463 15.09 15.6462 15.2838C15.5525 15.4838 15.47 15.5725 15.3225 15.7425C15.175 15.9125 15.035 16.0425 14.8875 16.225C14.7525 16.3837 14.6 16.5538 14.77 16.8475C14.94 17.135 15.5275 18.0937 16.3925 18.8637C17.5087 19.8575 18.4137 20.175 18.7375 20.31C18.9787 20.41 19.2662 20.3863 19.4425 20.1988C19.6663 19.9575 19.9425 19.5575 20.2238 19.1638C20.4237 18.8813 20.6763 18.8462 20.9412 18.9462C21.2113 19.04 22.64 19.7462 22.9338 19.8925C23.2275 20.04 23.4212 20.11 23.4925 20.2338C23.5625 20.3575 23.5625 20.9388 23.3212 21.6213Z" fill="white"/>
</svg>
